<?xml version="1.0" encoding="utf-8"?>
<!-- Generator: Adobe Illustrator 22.0.1, SVG Export Plug-In . SVG Version: 6.00 Build 0)  -->
<svg version="1.1" id="Layer_1" xmlns="http://www.w3.org/2000/svg" xmlns:xlink="http://www.w3.org/1999/xlink" x="0px" y="0px"
	 viewBox="0 0 266.4 144" style="enable-background:new 0 0 266.4 144;" xml:space="preserve">
<style type="text/css">
	.st0{fill: white}
</style>
<g>
	<g>
		<path class="st0" d="M95.4,22c0-2-0.4-3.7-0.4-5.8c7.9-1.7,13-2,14.4-2c0,1.3,0,2.4,0,3.7c0,0.7,0,1.3,0,1.7
			c-1.7,0-3.1,0.4-4.4,0.4c-0.4,3.1-0.4,6.1-0.4,9.2c0,2.8,0,5.2,0.4,7.9c-2,0-3.7,0.4-5.8,0.7c0-1.7,0-3.4,0-5.2
			c0-3.7,0-7.6,0.4-11.3C98.1,20.9,96.8,21.3,95.4,22z"/>
		<path class="st0" d="M120.1,13.8c5.5,0,9.6,4.4,9.6,10.3c0,6.5-4.8,12.3-10.9,13c-0.4,0-1.1,0-1.3,0c-5.5,0-9.6-4.4-9.6-10.3
			c0-6.5,4.8-12.3,10.9-13C119,14.1,119.7,13.8,120.1,13.8z M113.6,27.2c0,2.8,1.3,4.8,4.4,4.4c3.4-0.4,5.8-4.1,5.8-7.2
			c0-2.4-1.3-4.8-4.4-4.4C116,20.3,113.6,23.7,113.6,27.2z"/>
	</g>
	<path class="st0" d="M90.9,16.2c-1.1,10.9-1.7,51.3-2,61.9c3.4-0.7,1.7-1.3,5.5-1.7c0-10.6,0.4-21.8,1.1-32.5
		c6.8-0.4,13.7-0.7,20.5-0.7c-0.7,11.3-1.3,22.9-1.3,34.5c0,14.7,2.4,64.3,2.4,64.3H95.4c0,0-1.1-36.2-1.1-46.2
		c-3.7,0.4-2,1.3-5.8,2.4c0,10.3,1.3,43.8,1.3,43.8H63.3c0,0-0.4-23.3-0.4-30.1c0-21.8,1.1-66,2.4-87.2
		C72.5,24.4,84.1,16.2,90.9,16.2z"/>
	<path class="st0" d="M169.6,33.3l0.7,19.5c-9.2,0.4-18.5,1.1-27.3,3.4c-0.7,3.4-1.1,6.5-1.3,9.6c9.2-2,11.6-1.7,19.2-2
		c0.4,5.8,1.1,13.7,1.3,19.5c-7.9,0.7-10.6,0.7-19.8,3.4c0.4,2,0.4,4.4,0.7,6.5c9.6-2.4,21.2-2.8,31.4-3.7l1.1,52.7h-52.3
		c0,0-2.8-45.1-2.8-57.8c0-15,1.1-31.1,2.4-45.8C137.5,34.7,156.3,32.9,169.6,33.3z"/>
	<path class="st0" d="M179.9,84.3c0-16.8,1.3-46.9,3.4-61.5l24.2-2.4c-1.1,10.6-4.1,44.7-4.1,57.8c0,3.1,0,5.5,0.7,7.6
		c6.5-0.7,5.2-1.3,13-2v58.4h-36.2C180.9,142.1,179.9,93.1,179.9,84.3z"/>
	<path class="st0" d="M220.2,73c0-18.8,1.7-33.8,3.7-50.3l20.5-2.8c-1.1,12.3-4.4,31.4-4.4,46.2c0,3.4,0,6.1,0.7,8.5
		c7.6-0.7,13.3-1.7,22.2-2.4v69.4h-41C221.6,142.1,220.2,83.2,220.2,73z"/>
	<g>
		<g>
			<path class="st0" d="M16.8,143.4c-7.2,0-13.3-5.8-13.3-13.3c0-7.6,5.8-13.3,13.3-13.3s13.3,5.8,13.3,13.3
				C30.1,137.6,24,143.4,16.8,143.4z M24.4,129.4c0-3.4-1.3-5.2-4.1-5.2c-1.7,0-2.8,1.1-3.1,2c-0.4-1.1-1.3-1.7-3.1-1.7
				c-2.8,0-4.1,1.7-4.1,5.2v5.2h14.7v-5.5H24.4z M13,131.1v-1.3c0-1.1,0.4-1.3,1.1-1.3c0.7,0,1.1,0.4,1.1,1.3v1.3H13z M18.5,131.1
				v-1.7c0-1.1,0.4-1.3,1.3-1.3c0.7,0,1.1,0.4,1.1,1.3v1.7H18.5z"/>
			<path class="st0" d="M16.8,115c-7.2,0-13.3-5.8-13.3-13.3c0-7.6,5.8-13.3,13.3-13.3s13.3,5.8,13.3,13.3
				C30.1,108.9,24,115,16.8,115z M16.8,93.1c-4.1,0-7.6,3.4-7.6,8.2c0,5.2,3.4,8.2,7.6,8.2s7.6-3.4,7.6-8.2
				C24.4,96.5,20.9,93.1,16.8,93.1z M16.8,106.1c-2,0-3.7-1.7-3.7-4.4c0-2.7,1.7-4.4,3.7-4.4s3.7,1.3,3.7,4.4
				C20.5,104.4,18.9,106.1,16.8,106.1z"/>
			<path class="st0" d="M16.8,86.3C9.6,86.3,3.5,80.5,3.5,73c0-7.6,5.8-13.3,13.3-13.3S30.1,65.4,30.1,73
				C30.1,80.5,24,86.3,16.8,86.3z M16.8,64.7c-4.1,0-7.6,3.4-7.6,8.2c0,5.2,3.4,8.2,7.6,8.2s7.6-3.4,7.6-8.2
				C24.4,67.8,20.9,64.7,16.8,64.7z M16.8,77.4c-2,0-3.7-1.7-3.7-4.4s1.7-4.4,3.7-4.4s3.7,1.3,3.7,4.4
				C20.5,75.7,18.9,77.4,16.8,77.4z"/>
			<path class="st0" d="M16.8,57.9c-7.2,0-13.3-5.8-13.3-13.3c0-7.6,5.8-13.3,13.3-13.3c7.2,0,13.3,5.8,13.3,13.3
				C30.1,51.8,24,57.9,16.8,57.9z M22.6,36l-6.8,6.1l-4.1-4.8l-2,3.1l5.2,5.2l1.1,1.1h-5.5v3.7h14.4v-3.7h-4.4l-1.7-1.7l6.5-5.5
				L22.6,36z"/>
		</g>
		<g>
			<path class="st0" d="M46.2,142.7c-7.2,0-13.3-5.8-13.3-13.3c0-7.6,5.8-13.3,13.3-13.3s13.3,5.8,13.3,13.3
				C59.5,136.6,53.8,142.7,46.2,142.7z M53.4,127.3H39v3.7h14.4V127.3z"/>
			<path class="st0" d="M46.2,114c-7.2,0-13.3-5.8-13.3-13.3c0-7.6,5.8-13.3,13.3-13.3s13.3,5.8,13.3,13.3S53.8,114,46.2,114z
				 M53.4,98.9H42.5v-4.1H39v12.3h3.4V103h10.9V98.9z"/>
		</g>
		<g>
			<path class="st0" d="M46.2,85.2c-7.2,0-13.3-5.8-13.3-13.3c0-7.6,5.8-13.3,13.3-13.3c7.2,0,13.3,5.8,13.3,13.3
				C59.5,79.4,53.8,85.2,46.2,85.2z M51.4,75.7v-7.5l2.8-1.3l-1.7-3.7l-14,8.9l14,8.9l1.3-3.7L51.4,75.7z M44.9,71.9l3.1-2v3.7
				L44.9,71.9z"/>
			<path class="st0" d="M46.2,56.6c-7.2,0-13.3-5.8-13.3-13.3c0-7.6,5.8-13.3,13.3-13.3s13.3,5.8,13.3,13.3S53.8,56.6,46.2,56.6z
				 M53.8,38.4h-3.4v5.2H39.4v4.1h14.4V38.4z"/>
			<path class="st0" d="M46.2,28.1c-7.2,0-13.3-5.8-13.3-13.3c0-7.6,5.8-13.3,13.3-13.3s13.3,5.8,13.3,13.3
				C59.5,22,53.8,28.1,46.2,28.1z M53.8,9.7h-3.4v5.5H39.4v4.1h14.4V9.7z"/>
		</g>
	</g>
</g>
</svg>
